<?xml version="1.0" encoding="UTF-8"?>
<svg id="Layer_1" data-name="Layer 1" xmlns="http://www.w3.org/2000/svg" viewBox="0 0 187.78 299.7">
  <defs>
    <style>
      .cls-1 {
        fill: #231f20;
      }

      .cls-2 {
        fill-rule: evenodd;
      }

      .cls-2, .cls-3 {
        fill: #082843;
      }

      .cls-4 {
        fill: #826e39;
      }

      .cls-5 {
        fill: #86712c;
      }
    </style>
  </defs>
  <g>
    <g>
      <path class="cls-5" d="M4.55,259.38c-.86,0-1.59-.12-2.17-.35-.59-.24-1.06-.55-1.41-.94-.35-.39-.6-.85-.75-1.38-.15-.53-.22-1.08-.22-1.64v-4.96h3.35v4.37c0,.63.11,1.03.32,1.22.21.19.58.28,1.09.28h13.65v-8.28h3.38v11.68H4.55ZM7.58,243.12c0-.47.17-.87.5-1.2.33-.33.75-.5,1.26-.5s.93.17,1.26.5c.33.33.5.73.5,1.2s-.17.87-.5,1.2c-.33.33-.75.5-1.26.5s-.93-.17-1.26-.5c-.33-.33-.5-.73-.5-1.2ZM12.15,243.12c0-.47.17-.87.5-1.2.33-.33.75-.5,1.26-.5s.93.17,1.26.5c.33.33.5.73.5,1.2s-.17.87-.5,1.2c-.33.33-.75.5-1.26.5s-.93-.17-1.26-.5c-.33-.33-.5-.73-.5-1.2Z"/>
      <path class="cls-5" d="M41.45,238.36v21.02h-16.47v-3.41h6.02v-12.12h3.35v12.12h3.76v-17.61h3.35Z"/>
      <path class="cls-5" d="M52.35,259.38c-1.21,0-2.24-.17-3.07-.51-.83-.34-1.51-.79-2.03-1.35-.52-.56-.9-1.19-1.13-1.89-.23-.7-.35-1.42-.35-2.14,0-.92.15-1.8.45-2.63.3-.83.73-1.56,1.28-2.19.55-.63,1.2-1.12,1.97-1.48.76-.36,1.6-.54,2.52-.54.86,0,1.64.14,2.33.43.69.28,1.29.69,1.78,1.2.49.52.87,1.14,1.13,1.85.26.71.4,1.5.4,2.36v6.46c0,1.23-.19,2.28-.56,3.16-.37.87-.9,1.58-1.57,2.11-.68.54-1.48.93-2.41,1.19-.93.25-1.95.38-3.07.38-.41,0-.87-.01-1.37-.04-.5-.03-1.05-.09-1.66-.19l.23-3.29c.57.08,1.11.14,1.63.18.52.04.95.06,1.31.06.55,0,1.07-.04,1.56-.12.49-.08.92-.23,1.29-.45.37-.23.67-.54.91-.94.23-.4.37-.93.41-1.6h-2ZM54.31,255.98v-2.61c0-1.12-.22-1.97-.66-2.57-.44-.6-1.05-.9-1.83-.9-.35,0-.69.07-1.01.22-.32.15-.62.35-.88.62-.26.26-.47.58-.63.95-.16.37-.23.79-.23,1.26,0,.55.09,1.01.26,1.39.18.38.41.7.7.94.29.25.64.42,1.03.53.39.11.79.16,1.2.16h2.05Z"/>
      <path class="cls-5" d="M61.8,238.36h3.35v17.61h2c.31,0,.53.08.65.23.12.16.18.34.18.56v1.79c0,.16-.07.33-.21.53-.14.2-.34.29-.62.29h-5.34v-21.02Z"/>
      <path class="cls-5" d="M67.03,259.38c-.31,0-.53-.08-.65-.24-.12-.16-.18-.33-.18-.53v-1.73c0-.21.07-.42.21-.62.14-.2.34-.29.62-.29h4.87c.31,0,.53.08.65.23.12.16.18.34.18.56v1.79c0,.16-.06.33-.19.53-.13.2-.33.29-.6.29h-4.9Z"/>
      <path class="cls-5" d="M71.78,259.38c-.31,0-.53-.08-.65-.24-.12-.16-.18-.33-.18-.53v-1.73c0-.21.07-.42.21-.62.14-.2.34-.29.62-.29h4.87c.31,0,.53.08.65.23.12.16.18.34.18.56v1.79c0,.16-.06.33-.19.53-.13.2-.33.29-.6.29h-4.9Z"/>
      <path class="cls-5" d="M91.42,255.98h2.85c.31,0,.52.08.63.23.11.16.16.34.16.56v1.79c0,.16-.06.33-.19.53-.13.2-.33.29-.6.29h-17.76c-.31,0-.52-.08-.63-.24-.11-.16-.16-.33-.16-.53v-1.73c0-.21.06-.42.19-.62.13-.2.33-.29.6-.29h3.73c-.14-.22-.3-.57-.48-1.07-.19-.5-.28-1.14-.28-1.92s.16-1.59.47-2.35c.31-.76.75-1.44,1.32-2.03.57-.59,1.26-1.06,2.07-1.42.81-.36,1.71-.54,2.69-.54.82,0,1.57.14,2.23.41.67.27,1.23.66,1.7,1.16.47.5.83,1.1,1.09,1.81.25.7.38,1.49.38,2.35v3.61ZM81.73,243.12c0-.47.17-.87.5-1.2.33-.33.75-.5,1.26-.5s.93.17,1.26.5c.33.33.5.73.5,1.2s-.17.87-.5,1.2-.75.5-1.26.5-.93-.17-1.26-.5c-.33-.33-.5-.73-.5-1.2ZM88.05,255.98v-3.76c0-.27-.04-.55-.13-.82-.09-.27-.23-.52-.43-.75-.2-.22-.44-.41-.73-.54-.29-.14-.66-.21-1.09-.21-.37,0-.73.07-1.07.22-.34.15-.65.35-.91.62s-.47.58-.63.95c-.16.37-.23.79-.23,1.26,0,.7.14,1.26.41,1.66.27.4.58.71.91.92.37.23.82.38,1.35.44h2.55ZM86.31,243.12c0-.47.17-.87.5-1.2s.75-.5,1.26-.5.93.17,1.26.5c.33.33.5.73.5,1.2s-.17.87-.5,1.2-.75.5-1.26.5-.93-.17-1.26-.5c-.33-.33-.5-.73-.5-1.2Z"/>
      <path class="cls-5" d="M94.09,259.38c-.29,0-.5-.08-.62-.24-.12-.16-.18-.34-.18-.53v-1.75c0-.22.06-.42.19-.62.13-.2.33-.3.6-.3h1.15c.22,0,.43-.03.65-.1.22-.07.41-.2.57-.41.17-.2.3-.49.4-.85.1-.36.15-.82.15-1.39,0-.93.15-1.79.46-2.58.3-.79.72-1.47,1.26-2.04.54-.57,1.18-1.03,1.92-1.36.74-.33,1.55-.5,2.41-.5,1.9,0,3.35.6,4.36,1.81,1.01,1.21,1.51,2.9,1.51,5.08,0,.18.02.4.07.67.05.27.16.53.34.77s.44.45.78.63c.34.18.81.26,1.39.26h1.06c.29,0,.5.08.63.24.13.16.19.35.19.56v1.81c0,.16-.07.34-.21.53-.14.2-.34.3-.62.3h-1.15c-.82,0-1.54-.21-2.16-.62s-1.07-.94-1.37-1.57c-.35.55-.72.99-1.12,1.3-.39.32-.79.55-1.2.7-.41.15-.84.24-1.29.28-.45.04-.91.06-1.38.06-1.12,0-2.04-.2-2.77-.59-.73-.39-1.34-.91-1.81-1.54-.27.57-.67,1.05-1.17,1.42-.51.38-1.09.56-1.73.56h-1.32ZM103.02,256.12c.94,0,1.63-.28,2.07-.83.44-.56.66-1.24.66-2.06,0-.51-.08-.96-.23-1.37-.16-.41-.36-.76-.6-1.05-.24-.29-.53-.52-.87-.67-.33-.16-.68-.23-1.03-.23-.37,0-.72.08-1.06.23-.33.16-.62.38-.87.67-.25.29-.44.64-.59,1.05-.15.41-.22.87-.22,1.37,0,.82.22,1.51.66,2.06s1.13.83,2.07.83Z"/>
      <path class="cls-5" d="M112.41,259.38c-.33,0-.55-.08-.65-.24-.1-.16-.15-.33-.15-.53v-1.73c0-.21.06-.42.19-.62.13-.2.33-.29.6-.29h2.82c.43,0,.72-.14.87-.41.15-.27.22-.65.22-1.12v-16.09h3.38v14.91c0,.78.18,1.43.54,1.94.36.51,1.04.76,2.04.76h1.03c.33,0,.55.08.65.23.1.16.15.34.15.56v1.79c0,.16-.06.33-.19.53-.13.2-.33.29-.6.29h-1.15c-.84,0-1.52-.2-2.04-.6-.52-.4-.92-.85-1.19-1.34-.33.65-.8,1.13-1.41,1.45-.61.32-1.32.48-2.14.48h-2.97Z"/>
      <path class="cls-5" d="M123.1,259.38c-.29,0-.49-.08-.6-.24-.11-.16-.16-.33-.16-.53v-1.73c0-.21.06-.42.18-.62.12-.2.31-.29.59-.29h3.46v-17.61h3.32v21.02h-6.78Z"/>
      <path class="cls-5" d="M142.07,238.36h3.35v17.61h2c.31,0,.53.08.65.23.12.16.18.34.18.56v1.79c0,.16-.07.33-.2.53-.14.2-.34.29-.62.29h-5.34v-21.02Z"/>
      <path class="cls-5" d="M147.29,259.38c-.31,0-.53-.08-.65-.24-.12-.16-.18-.33-.18-.53v-1.73c0-.21.07-.42.21-.62.14-.2.34-.29.62-.29h4.87c.31,0,.53.08.65.23.12.16.18.34.18.56v1.79c0,.16-.06.33-.19.53-.13.2-.33.29-.6.29h-4.9Z"/>
      <path class="cls-5" d="M152.05,259.38c-.31,0-.53-.08-.65-.24-.12-.16-.18-.33-.18-.53v-1.73c0-.21.07-.42.21-.62.14-.2.34-.29.62-.29h4.87c.31,0,.53.08.65.23.12.16.18.34.18.56v1.79c0,.16-.06.33-.19.53-.13.2-.33.29-.6.29h-4.9Z"/>
      <path class="cls-5" d="M156.86,259.38c-.25,0-.46-.08-.63-.25-.17-.17-.25-.38-.25-.63v-1.47c0-.25.08-.47.25-.63.17-.17.38-.25.63-.25h2.23l-1.29-3.23,1.67-3.23h7.72v6.46h2.05v3.23h-12.39ZM159.59,246.03l1.97-1.67,1.67,1.44,1.67-1.44,1.97,1.67-1.97,1.67-1.67-1.41-1.67,1.41-1.97-1.67ZM161.27,243.03l1.97-1.67,1.97,1.67-1.97,1.67-1.97-1.67ZM161.27,252.92l1.29,3.23h1.41v-3.23h-2.7Z"/>
      <path class="cls-5" d="M169.13,259.38c-.27,0-.47-.08-.59-.24-.12-.16-.18-.33-.18-.53v-1.73c0-.21.06-.42.19-.62s.32-.29.57-.29h4.02v-8.28h3.35v11.68h-7.37ZM169.37,263.07c0-.47.17-.87.5-1.2.33-.33.75-.49,1.26-.49s.93.16,1.26.49c.33.33.5.73.5,1.2s-.17.9-.5,1.23c-.33.33-.75.49-1.26.49s-.93-.16-1.26-.49c-.33-.33-.5-.74-.5-1.23ZM173.92,263.07c0-.47.17-.87.5-1.2.33-.33.75-.49,1.26-.49s.93.16,1.26.49c.33.33.5.73.5,1.2s-.17.9-.5,1.23c-.33.33-.75.49-1.26.49s-.93-.16-1.26-.49c-.33-.33-.5-.74-.5-1.23Z"/>
      <path class="cls-5" d="M186.45,258.91c0,.88-.12,1.7-.35,2.47-.23.76-.59,1.43-1.06,2-.47.57-1.05,1.01-1.73,1.34-.69.32-1.48.48-2.38.48-.37,0-.71-.02-1.03-.04-.31-.03-.59-.06-.82-.1-.14-.02-.27-.04-.4-.06-.13-.02-.26-.05-.4-.09l.38-3.35.82.18c.23.04.48.07.73.1.25.03.49.04.7.04.86,0,1.44-.27,1.73-.82.29-.55.44-1.35.44-2.41v-10.95h3.35v11.21Z"/>
    </g>
    <g>
      <path class="cls-1" d="M0,299.51v-16.53h5.05c1.14,0,2.1.23,2.91.69s1.42,1.12,1.85,1.98c.43.87.65,1.9.65,3.09s-.22,2.22-.65,3.08c-.43.86-1.05,1.52-1.85,1.97-.8.46-1.77.69-2.91.69H1.02l.83-1.09v6.12H0ZM1.85,293.63l-.83-1.16h3.98c1.19,0,2.08-.33,2.69-.98.61-.65.92-1.57.92-2.75s-.31-2.09-.92-2.74-1.51-.97-2.69-.97H1.02l.83-1.18v9.78ZM8.67,299.51l-3.3-6h1.98l3.33,6h-2.02Z"/>
      <path class="cls-1" d="M13.46,299.51v-16.53h1.85v16.53h-1.85Z"/>
      <path class="cls-1" d="M22.81,299.51l-5.7-16.53h2l5.24,15.26h-1.15l5.28-15.26h1.85l-5.68,16.53h-1.83Z"/>
      <path class="cls-1" d="M29.61,299.51l5.87-16.53h1.83l5.89,16.53h-1.94l-5.24-15.21h.74l-5.24,15.21h-1.91ZM32.11,295.38l.5-1.89h7.3l.54,1.89h-8.33Z"/>
      <path class="cls-1" d="M55.9,299.7c-.99,0-1.9-.21-2.73-.63-.83-.42-1.56-1.01-2.17-1.77-.61-.76-1.09-1.66-1.44-2.68-.35-1.02-.52-2.15-.52-3.38s.17-2.35.52-3.38c.35-1.02.83-1.92,1.44-2.68.62-.76,1.34-1.35,2.18-1.77.83-.42,1.74-.63,2.73-.63s1.92.22,2.77.65c.85.43,1.56,1.07,2.16,1.92l-1.2,1.49c-.49-.66-1.05-1.15-1.67-1.48-.62-.32-1.28-.48-1.98-.48s-1.4.16-2.03.47c-.62.32-1.16.76-1.62,1.32s-.81,1.24-1.06,2.02c-.25.78-.38,1.63-.38,2.54s.13,1.76.38,2.54c.25.78.61,1.45,1.06,2.02s1,1.01,1.62,1.32c.62.31,1.3.47,2.03.47s1.36-.16,1.98-.48,1.17-.82,1.67-1.5l1.2,1.49c-.59.85-1.31,1.5-2.16,1.94-.85.44-1.77.66-2.79.66Z"/>
      <path class="cls-1" d="M69.06,299.7c-.99,0-1.9-.21-2.75-.64s-1.58-1.02-2.19-1.78c-.62-.76-1.1-1.66-1.44-2.68-.35-1.02-.52-2.14-.52-3.35s.17-2.33.52-3.35c.35-1.02.83-1.92,1.44-2.68.62-.76,1.35-1.36,2.18-1.78.84-.43,1.76-.64,2.76-.64s1.9.21,2.73.63c.83.42,1.56,1.01,2.18,1.77.62.76,1.1,1.66,1.44,2.68.34,1.02.51,2.15.51,3.38s-.17,2.35-.51,3.38c-.34,1.02-.82,1.92-1.44,2.68-.62.76-1.35,1.35-2.18,1.77-.83.42-1.74.63-2.73.63ZM69.06,297.6c.72,0,1.38-.16,1.99-.47.61-.32,1.14-.76,1.59-1.33.45-.57.8-1.25,1.06-2.02.25-.77.38-1.61.38-2.53s-.13-1.76-.38-2.53c-.25-.77-.61-1.44-1.06-2.02-.45-.57-.98-1.02-1.59-1.33-.61-.31-1.27-.47-1.99-.47s-1.4.16-2.01.47c-.61.32-1.15.76-1.6,1.33s-.81,1.25-1.06,2.02c-.25.77-.38,1.61-.38,2.53s.13,1.76.38,2.53c.25.77.61,1.44,1.06,2.02s.99,1.02,1.6,1.33c.61.31,1.28.47,2.01.47Z"/>
      <path class="cls-1" d="M78.76,299.51v-16.53h1.52l8.57,13.58h-.8v-13.58h1.85v16.53h-1.52l-8.57-13.58h.8v13.58h-1.85Z"/>
      <path class="cls-1" d="M96.37,299.51v-14.48h-4.44v-2.05h10.72v2.05h-4.44v14.48h-1.83Z"/>
      <path class="cls-1" d="M104.67,299.51v-16.53h5.05c1.14,0,2.1.23,2.91.69s1.42,1.12,1.85,1.98c.43.87.65,1.9.65,3.09s-.22,2.22-.65,3.08c-.43.86-1.05,1.52-1.85,1.97-.8.46-1.77.69-2.91.69h-4.04l.83-1.09v6.12h-1.85ZM106.52,293.63l-.83-1.16h3.98c1.19,0,2.08-.33,2.69-.98.61-.65.92-1.57.92-2.75s-.31-2.09-.92-2.74-1.51-.97-2.69-.97h-3.98l.83-1.18v9.78ZM113.33,299.51l-3.3-6h1.98l3.33,6h-2.02Z"/>
      <path class="cls-1" d="M116.17,299.51l5.87-16.53h1.83l5.89,16.53h-1.94l-5.24-15.21h.74l-5.24,15.21h-1.91ZM118.66,295.38l.5-1.89h7.3l.54,1.89h-8.33Z"/>
      <path class="cls-1" d="M137.29,299.7c-.99,0-1.9-.21-2.73-.63-.83-.42-1.56-1.01-2.17-1.77-.61-.76-1.09-1.66-1.44-2.68-.35-1.02-.52-2.15-.52-3.38s.17-2.35.52-3.38c.35-1.02.83-1.92,1.44-2.68.62-.76,1.34-1.35,2.18-1.77.83-.42,1.74-.63,2.73-.63s1.92.22,2.77.65c.85.43,1.56,1.07,2.16,1.92l-1.2,1.49c-.49-.66-1.05-1.15-1.67-1.48-.62-.32-1.28-.48-1.98-.48s-1.4.16-2.03.47c-.62.32-1.16.76-1.62,1.32s-.81,1.24-1.06,2.02c-.25.78-.38,1.63-.38,2.54s.13,1.76.38,2.54c.25.78.61,1.45,1.06,2.02s1,1.01,1.62,1.32c.62.31,1.3.47,2.03.47s1.36-.16,1.98-.48,1.17-.82,1.67-1.5l1.2,1.49c-.59.85-1.31,1.5-2.16,1.94-.85.44-1.77.66-2.79.66Z"/>
      <path class="cls-1" d="M147.31,299.51v-14.48h-4.44v-2.05h10.72v2.05h-4.44v14.48h-1.83Z"/>
      <path class="cls-1" d="M155.6,299.51v-16.53h1.85v16.53h-1.85Z"/>
      <path class="cls-1" d="M161.34,299.51v-16.53h1.52l8.57,13.58h-.8v-13.58h1.85v16.53h-1.52l-8.57-13.58h.8v13.58h-1.85Z"/>
      <path class="cls-1" d="M182.23,299.7c-1,0-1.92-.21-2.76-.63s-1.57-1.01-2.18-1.77c-.62-.76-1.1-1.66-1.44-2.68-.35-1.02-.52-2.15-.52-3.38s.17-2.35.52-3.38c.35-1.02.83-1.92,1.45-2.68s1.35-1.35,2.19-1.77c.84-.42,1.77-.63,2.78-.63s1.96.21,2.81.64,1.57,1.06,2.17,1.91l-1.15,1.46c-.53-.66-1.11-1.15-1.73-1.45-.62-.31-1.3-.46-2.03-.46s-1.43.16-2.06.47c-.64.32-1.19.76-1.65,1.32-.46.57-.82,1.24-1.07,2.02-.25.78-.38,1.63-.38,2.54s.13,1.74.38,2.52c.25.78.61,1.46,1.07,2.03.46.57,1.01,1.02,1.64,1.33.63.31,1.31.47,2.06.47.69,0,1.35-.14,1.99-.41.64-.28,1.23-.74,1.77-1.38l1.06,1.8c-.64.69-1.39,1.22-2.25,1.57-.86.35-1.74.53-2.66.53ZM185.36,297.29v-6.14h1.78v6.45l-1.78-.31Z"/>
    </g>
  </g>
  <g>
    <polygon class="cls-2" points="0 187.78 0 66.51 60.64 127.14 0 187.78"/>
    <g>
      <polygon class="cls-2" points="85.3 102.49 79.98 107.81 187.78 85.51 187.78 77.92 85.3 102.49 85.3 102.49 85.3 102.49"/>
      <polygon class="cls-2" points="85.3 102.49 85.3 102.49 85.74 102.04 85.49 102.29 85.3 102.49"/>
      <polygon class="cls-2" points="79.6 108.19 79.32 108.46 79.32 108.46 74.07 113.71 74.07 113.71 73.51 114.28 74.08 113.71 187.78 94.8 187.78 87.2 79.32 108.46 79.6 108.19"/>
      <polygon class="cls-2" points="92.71 95.07 86.21 101.57 86.21 101.57 85.74 102.04 86.21 101.57 187.78 75.89 187.78 68.29 92.71 95.07 93.64 94.14 92.71 95.07 92.71 95.07"/>
      <polygon class="cls-2" points="64.7 131.01 64.52 130.83 64.53 130.84 64.7 131.01 64.7 131.01 124.37 187.78 184.79 130.01 64.7 131.01"/>
      <polygon class="cls-2" points="93.64 94.14 94.21 93.57 94.21 93.57 93.64 94.14"/>
      <rect class="cls-3" x="68.31" y="119.14" width=".67" height="0" transform="translate(-64.13 83.4) rotate(-44.99)"/>
      <polygon class="cls-2" points="68.41 119.37 60.64 127.14 64.49 130.81 185.68 129.15 184.93 129.87 187.78 127.14 187.78 121.87 62.31 128.73 62.13 128.55 187.78 121.02 187.78 114.05 62.53 125.26 62.84 124.94 187.78 112.78 187.78 105.13 68.41 119.37 68.41 119.37 68.41 119.37"/>
      <polygon class="cls-2" points="79.98 107.81 79.93 107.86 79.6 108.19 79.98 107.81 79.98 107.81"/>
      <polygon class="cls-2" points="68.88 118.9 68.88 118.9 68.88 118.9 187.78 103.45 187.78 96.5 73.51 114.28 73.5 114.28 68.88 118.9"/>
      <polygon class="cls-2" points="103.22 84.56 102.2 85.59 94.21 93.57 94.22 93.57 94.21 93.57 187.78 66.01 187.78 58.64 102.15 85.64 103.22 84.56"/>
      <rect class="cls-3" x="137.69" y="46.92" width="6.34" height="0" transform="translate(8.08 113.35) rotate(-45)"/>
      <polygon class="cls-2" points="138.62 49.16 138.62 49.16 126.8 60.99 187.78 34.81 187.78 27.14 138.62 49.16 138.62 49.16"/>
      <polygon class="cls-2" points="157.09 30.7 157.09 30.7 143.11 44.68 187.78 23.77 187.78 15.26 157.09 30.7 157.09 30.7"/>
      <polygon class="cls-2" points="104.19 83.59 104.19 83.59 104.19 83.59 104.19 83.59"/>
      <polygon class="cls-2" points="162.96 24.83 187.78 11.77 187.78 0 162.96 24.83"/>
      <polygon class="cls-2" points="157.09 30.7 157.09 30.7 160.54 27.24 157.09 30.7"/>
      <polygon class="cls-2" points="112.15 75.64 112.15 75.64 104.2 83.59 187.78 55.97 187.78 48.25 112.15 75.64 112.15 75.64"/>
      <polygon class="cls-2" points="104.19 83.59 103.22 84.56 104.2 83.59 104.19 83.59"/>
      <polygon class="cls-2" points="114.86 72.93 112.95 74.84 112.15 75.64 112.15 75.64 114.86 72.93 114.86 72.93"/>
      <polygon class="cls-2" points="125.41 62.37 125.2 62.59 123.52 64.26 123.52 64.26 114.86 72.92 187.78 45.31 187.78 37.78 123.52 64.26 125.41 62.37"/>
    </g>
    <rect class="cls-4" x="0" y="208.86" width="187.78" height="13.74"/>
  </g>
</svg>