<?xml version="1.0" encoding="UTF-8"?>
<svg id="Layer_1" data-name="Layer 1" xmlns="http://www.w3.org/2000/svg" viewBox="0 0 490.97 174.01">
  <defs>
    <style>
      .cls-1, .cls-2 {
        fill: #fff;
      }

      .cls-2 {
        fill-rule: evenodd;
      }
    </style>
  </defs>
  <g>
    <g>
      <path class="cls-1" d="M7.56,104.42c-1.43,0-2.63-.2-3.61-.59-.98-.39-1.76-.91-2.34-1.56-.59-.65-1-1.41-1.24-2.29C.12,99.1,0,98.19,0,97.25v-8.24h5.56v7.27c0,1.04.18,1.72.54,2.02.36.31.96.46,1.8.46h22.68v-13.76h5.61v19.42H7.56ZM12.59,77.4c0-.78.28-1.45.83-2,.55-.55,1.25-.83,2.1-.83s1.54.28,2.1.83c.55.55.83,1.22.83,2s-.28,1.45-.83,2c-.55.55-1.25.83-2.1.83s-1.55-.28-2.1-.83c-.55-.55-.83-1.22-.83-2ZM20.2,77.4c0-.78.28-1.45.83-2,.55-.55,1.25-.83,2.1-.83s1.54.28,2.1.83c.55.55.83,1.22.83,2s-.28,1.45-.83,2c-.55.55-1.25.83-2.1.83s-1.55-.28-2.1-.83c-.55-.55-.83-1.22-.83-2Z"/>
      <path class="cls-1" d="M68.88,69.49v34.93h-27.37v-5.66h10v-20.15h5.56v20.15h6.24v-29.27h5.56Z"/>
      <path class="cls-1" d="M86.98,104.42c-2.02,0-3.72-.28-5.1-.85-1.38-.57-2.51-1.32-3.37-2.24-.86-.93-1.49-1.98-1.88-3.15-.39-1.17-.59-2.36-.59-3.56,0-1.53.25-2.98.76-4.37.5-1.38,1.21-2.59,2.12-3.63.91-1.04,2-1.86,3.27-2.46,1.27-.6,2.67-.9,4.2-.9,1.43,0,2.72.24,3.88.71,1.15.47,2.14,1.14,2.95,2,.81.86,1.44,1.89,1.88,3.07.44,1.19.66,2.5.66,3.93v10.73c0,2.05-.31,3.8-.93,5.24-.62,1.45-1.49,2.62-2.61,3.51-1.12.89-2.46,1.55-4,1.97-1.55.42-3.24.63-5.1.63-.68,0-1.44-.02-2.27-.07-.83-.05-1.75-.15-2.76-.32l.39-5.46c.94.13,1.85.23,2.71.29.86.06,1.59.1,2.17.1.91,0,1.77-.07,2.59-.2.81-.13,1.53-.38,2.15-.76.62-.37,1.12-.9,1.51-1.56.39-.67.62-1.55.68-2.66h-3.32ZM90.25,98.76v-4.34c0-1.85-.37-3.28-1.1-4.27-.73-.99-1.75-1.49-3.05-1.49-.59,0-1.15.12-1.68.37-.54.24-1.02.59-1.46,1.02-.44.44-.79.97-1.05,1.59-.26.62-.39,1.32-.39,2.1,0,.91.15,1.68.44,2.32.29.63.68,1.15,1.17,1.56.49.41,1.06.7,1.71.88.65.18,1.32.27,2,.27h3.41Z"/>
      <path class="cls-1" d="M102.69,69.49h5.56v29.27h3.32c.52,0,.88.13,1.07.39.2.26.29.57.29.93v2.98c0,.26-.11.55-.34.88-.23.33-.57.49-1.02.49h-8.88v-34.93Z"/>
      <path class="cls-1" d="M111.37,104.42c-.52,0-.88-.13-1.07-.39-.2-.26-.29-.55-.29-.88v-2.88c0-.36.11-.7.34-1.02.23-.33.57-.49,1.02-.49h8.1c.52,0,.88.13,1.07.39.19.26.29.57.29.93v2.98c0,.26-.11.55-.32.88-.21.33-.55.49-1,.49h-8.15Z"/>
      <path class="cls-1" d="M119.28,104.42c-.52,0-.88-.13-1.07-.39-.2-.26-.29-.55-.29-.88v-2.88c0-.36.11-.7.34-1.02.23-.33.57-.49,1.02-.49h8.1c.52,0,.88.13,1.07.39.19.26.29.57.29.93v2.98c0,.26-.11.55-.32.88-.21.33-.55.49-1,.49h-8.15Z"/>
      <path class="cls-1" d="M151.91,98.76h4.73c.52,0,.87.13,1.05.39.18.26.27.57.27.93v2.98c0,.26-.11.55-.32.88-.21.33-.54.49-1,.49h-29.51c-.52,0-.87-.13-1.05-.39-.18-.26-.27-.55-.27-.88v-2.88c0-.36.11-.7.32-1.02.21-.33.54-.49,1-.49h6.2c-.23-.36-.5-.95-.81-1.78-.31-.83-.46-1.89-.46-3.2s.26-2.63.78-3.9c.52-1.27,1.25-2.39,2.2-3.37.94-.98,2.09-1.76,3.44-2.37,1.35-.6,2.84-.9,4.46-.9,1.37,0,2.6.23,3.71.68,1.11.46,2.05,1.1,2.83,1.93.78.83,1.38,1.83,1.8,3,.42,1.17.63,2.47.63,3.9v6ZM135.81,77.4c0-.78.28-1.45.83-2,.55-.55,1.25-.83,2.1-.83s1.54.28,2.1.83c.55.55.83,1.22.83,2s-.28,1.45-.83,2-1.25.83-2.1.83-1.55-.28-2.1-.83c-.55-.55-.83-1.22-.83-2ZM146.3,98.76v-6.24c0-.46-.07-.91-.22-1.37-.15-.46-.38-.87-.71-1.24-.33-.37-.73-.67-1.22-.9-.49-.23-1.09-.34-1.8-.34-.62,0-1.21.12-1.78.37-.57.24-1.07.59-1.51,1.02s-.79.97-1.05,1.59c-.26.62-.39,1.32-.39,2.1,0,1.17.23,2.09.68,2.76.46.67.96,1.18,1.51,1.54.62.39,1.37.63,2.24.73h4.24ZM143.42,77.4c0-.78.28-1.45.83-2s1.25-.83,2.1-.83,1.54.28,2.1.83c.55.55.83,1.22.83,2s-.28,1.45-.83,2-1.25.83-2.1.83-1.55-.28-2.1-.83c-.55-.55-.83-1.22-.83-2Z"/>
      <path class="cls-1" d="M156.35,104.42c-.49,0-.83-.13-1.02-.39-.2-.26-.29-.56-.29-.89v-2.9c0-.36.11-.71.32-1.03.21-.33.54-.49,1-.49h1.9c.36,0,.71-.06,1.07-.17.36-.11.67-.34.95-.68.28-.34.5-.81.66-1.41.16-.6.24-1.36.24-2.3,0-1.55.25-2.98.76-4.29.5-1.31,1.2-2.44,2.1-3.39.89-.95,1.96-1.7,3.2-2.25,1.24-.55,2.57-.82,4-.82,3.15,0,5.57,1,7.24,3.01,1.67,2,2.51,4.82,2.51,8.43,0,.29.04.66.12,1.12.08.45.27.88.56,1.28s.72.75,1.29,1.04c.57.29,1.34.44,2.32.44h1.76c.49,0,.84.13,1.05.39.21.26.32.57.32.93v3c0,.26-.11.56-.34.89-.23.33-.57.49-1.02.49h-1.9c-1.37,0-2.56-.34-3.59-1.03s-1.78-1.56-2.27-2.61c-.59.92-1.2,1.64-1.85,2.17-.65.52-1.32.91-2,1.16-.68.25-1.4.4-2.15.47-.75.07-1.51.1-2.29.1-1.85,0-3.39-.33-4.61-.98-1.22-.66-2.22-1.51-3-2.56-.46.95-1.11,1.74-1.95,2.36-.85.62-1.8.94-2.88.94h-2.2ZM171.18,99.01c1.56,0,2.71-.46,3.44-1.38.73-.92,1.1-2.06,1.1-3.42,0-.84-.13-1.6-.39-2.28-.26-.68-.59-1.26-1-1.75-.41-.49-.89-.86-1.44-1.12-.55-.26-1.12-.39-1.71-.39-.62,0-1.2.13-1.76.39-.55.26-1.03.63-1.44,1.12-.41.49-.73,1.07-.98,1.75-.24.68-.37,1.44-.37,2.28,0,1.36.37,2.5,1.1,3.42s1.88,1.38,3.44,1.38Z"/>
      <path class="cls-1" d="M186.79,104.42c-.55,0-.91-.13-1.07-.39-.16-.26-.24-.55-.24-.88v-2.88c0-.36.11-.7.32-1.02.21-.33.54-.49,1-.49h4.68c.71,0,1.2-.23,1.44-.68.24-.46.37-1.07.37-1.85v-26.73h5.61v24.78c0,1.3.3,2.38.9,3.22.6.85,1.73,1.27,3.39,1.27h1.71c.55,0,.91.13,1.07.39.16.26.24.57.24.93v2.98c0,.26-.11.55-.32.88-.21.33-.54.49-1,.49h-1.9c-1.4,0-2.53-.33-3.39-1-.86-.67-1.52-1.41-1.98-2.22-.55,1.07-1.33,1.88-2.34,2.42-1.01.54-2.2.8-3.56.8h-4.93Z"/>
      <path class="cls-1" d="M204.55,104.42c-.49,0-.82-.13-1-.39-.18-.26-.27-.55-.27-.88v-2.88c0-.36.1-.7.29-1.02.19-.33.52-.49.98-.49h5.76v-29.27h5.51v34.93h-11.27Z"/>
      <path class="cls-1" d="M236.06,69.49h5.56v29.27h3.32c.52,0,.88.13,1.07.39.2.26.29.57.29.93v2.98c0,.26-.11.55-.34.88-.23.33-.57.49-1.02.49h-8.88v-34.93Z"/>
      <path class="cls-1" d="M244.75,104.42c-.52,0-.88-.13-1.07-.39-.2-.26-.29-.55-.29-.88v-2.88c0-.36.11-.7.34-1.02.23-.33.57-.49,1.02-.49h8.1c.52,0,.88.13,1.07.39.2.26.29.57.29.93v2.98c0,.26-.11.55-.32.88-.21.33-.55.49-1,.49h-8.15Z"/>
      <path class="cls-1" d="M252.65,104.42c-.52,0-.88-.13-1.07-.39-.2-.26-.29-.55-.29-.88v-2.88c0-.36.11-.7.34-1.02.23-.33.57-.49,1.02-.49h8.1c.52,0,.88.13,1.07.39.2.26.29.57.29.93v2.98c0,.26-.11.55-.32.88-.21.33-.55.49-1,.49h-8.15Z"/>
      <path class="cls-1" d="M260.65,104.42c-.42,0-.77-.14-1.05-.41-.28-.28-.41-.63-.41-1.05v-2.44c0-.42.14-.77.41-1.05.28-.28.63-.41,1.05-.41h3.71l-2.15-5.37,2.78-5.37h12.83v10.73h3.41v5.37h-20.59ZM265.19,82.23l3.27-2.78,2.78,2.39,2.78-2.39,3.27,2.78-3.27,2.78-2.78-2.34-2.78,2.34-3.27-2.78ZM267.97,77.25l3.27-2.78,3.27,2.78-3.27,2.78-3.27-2.78ZM267.97,93.69l2.15,5.37h2.34v-5.37h-4.49Z"/>
      <path class="cls-1" d="M281.04,104.42c-.46,0-.78-.13-.98-.39-.19-.26-.29-.55-.29-.88v-2.88c0-.36.11-.7.32-1.02s.53-.49.95-.49h6.68v-13.76h5.56v19.42h-12.24ZM281.43,110.54c0-.79.28-1.45.83-1.99.55-.54,1.25-.81,2.1-.81s1.54.27,2.1.81c.55.54.83,1.21.83,1.99s-.28,1.5-.83,2.04c-.55.54-1.25.81-2.1.81s-1.54-.27-2.1-.81c-.55-.54-.83-1.22-.83-2.04ZM288.99,110.54c0-.79.28-1.45.83-1.99.55-.54,1.25-.81,2.1-.81s1.54.27,2.1.81c.55.54.83,1.21.83,1.99s-.28,1.5-.83,2.04c-.55.54-1.25.81-2.1.81s-1.54-.27-2.1-.81c-.55-.54-.83-1.22-.83-2.04Z"/>
      <path class="cls-1" d="M309.82,103.64c0,1.46-.19,2.83-.59,4.1-.39,1.27-.98,2.37-1.76,3.32-.78.94-1.74,1.68-2.88,2.22-1.14.54-2.46.81-3.95.81-.62,0-1.19-.03-1.71-.07-.52-.05-.98-.11-1.37-.17-.23-.03-.45-.07-.66-.1-.21-.03-.43-.08-.66-.15l.63-5.56,1.37.29c.39.07.8.12,1.22.17.42.05.81.07,1.17.07,1.43,0,2.39-.46,2.88-1.37.49-.91.73-2.24.73-4v-18.2h5.56v18.63Z"/>
    </g>
    <g>
      <path class="cls-1" d="M0,171.1v-27.47h8.4c1.89,0,3.5.38,4.83,1.14s2.36,1.86,3.08,3.3c.72,1.44,1.08,3.15,1.08,5.14s-.36,3.7-1.08,5.12c-.72,1.43-1.74,2.52-3.08,3.28-1.33.76-2.94,1.14-4.83,1.14H1.69l1.38-1.81v10.16H0ZM3.08,161.33l-1.38-1.92h6.61c1.97,0,3.46-.54,4.48-1.63,1.02-1.09,1.52-2.61,1.52-4.57s-.51-3.48-1.52-4.55-2.51-1.61-4.48-1.61H1.69l1.38-1.96v16.25ZM14.4,171.1l-5.48-9.97h3.29l5.54,9.97h-3.35Z"/>
      <path class="cls-1" d="M22.37,171.1v-27.47h3.08v27.47h-3.08Z"/>
      <path class="cls-1" d="M37.9,171.1l-9.48-27.47h3.32l8.71,25.35h-1.91l8.77-25.35h3.08l-9.45,27.47h-3.05Z"/>
      <path class="cls-1" d="M49.2,171.1l9.75-27.47h3.05l9.78,27.47h-3.23l-8.71-25.28h1.23l-8.71,25.28h-3.17ZM53.35,164.23l.83-3.14h12.12l.89,3.14h-13.84Z"/>
      <path class="cls-1" d="M92.88,171.41c-1.64,0-3.15-.35-4.54-1.04-1.38-.69-2.58-1.67-3.6-2.94-1.02-1.27-1.81-2.75-2.38-4.45-.57-1.7-.86-3.57-.86-5.61s.29-3.91.86-5.61c.57-1.7,1.37-3.18,2.4-4.45,1.03-1.27,2.23-2.25,3.61-2.94,1.38-.69,2.9-1.04,4.54-1.04s3.19.36,4.6,1.08c1.4.72,2.6,1.79,3.58,3.2l-2,2.47c-.82-1.1-1.74-1.92-2.77-2.45-1.03-.54-2.12-.8-3.29-.8s-2.33.26-3.37.78c-1.04.52-1.93,1.26-2.69,2.2s-1.35,2.06-1.77,3.36c-.42,1.29-.63,2.7-.63,4.22s.21,2.92.63,4.22c.42,1.3,1.01,2.41,1.77,3.36s1.66,1.67,2.69,2.2c1.04.52,2.16.78,3.37.78s2.27-.27,3.29-.8,1.95-1.37,2.77-2.49l2,2.47c-.98,1.41-2.18,2.49-3.58,3.22-1.41.73-2.95,1.1-4.63,1.1Z"/>
      <path class="cls-1" d="M114.76,171.41c-1.64,0-3.16-.35-4.57-1.06s-2.62-1.69-3.65-2.96c-1.03-1.27-1.83-2.75-2.4-4.45-.57-1.7-.86-3.56-.86-5.57s.29-3.87.86-5.57c.57-1.7,1.37-3.19,2.4-4.45,1.03-1.27,2.24-2.26,3.63-2.96,1.39-.71,2.92-1.06,4.58-1.06s3.15.35,4.54,1.04c1.38.69,2.59,1.67,3.63,2.94,1.04,1.27,1.84,2.75,2.4,4.45.56,1.7.85,3.57.85,5.61s-.28,3.91-.85,5.61c-.56,1.7-1.36,3.19-2.4,4.45-1.04,1.27-2.25,2.25-3.63,2.94-1.38.69-2.9,1.04-4.54,1.04ZM114.76,167.92c1.19,0,2.29-.26,3.31-.78,1.02-.52,1.9-1.26,2.65-2.22.75-.96,1.33-2.07,1.75-3.36.42-1.28.63-2.68.63-4.2s-.21-2.92-.63-4.2c-.42-1.28-1.01-2.4-1.75-3.36-.75-.96-1.63-1.69-2.65-2.22-1.02-.52-2.12-.78-3.31-.78s-2.32.26-3.34.78c-1.02.52-1.9,1.26-2.66,2.22s-1.35,2.07-1.77,3.36c-.42,1.28-.63,2.68-.63,4.2s.21,2.92.63,4.2c.42,1.28,1.01,2.4,1.77,3.36s1.65,1.69,2.66,2.22c1.02.52,2.13.78,3.34.78Z"/>
      <path class="cls-1" d="M130.88,171.1v-27.47h2.52l14.24,22.57h-1.32v-22.57h3.08v27.47h-2.52l-14.24-22.57h1.32v22.57h-3.08Z"/>
      <path class="cls-1" d="M160.14,171.1v-24.06h-7.38v-3.41h17.81v3.41h-7.38v24.06h-3.05Z"/>
      <path class="cls-1" d="M173.92,171.1v-27.47h8.4c1.89,0,3.5.38,4.83,1.14s2.36,1.86,3.08,3.3c.72,1.44,1.08,3.15,1.08,5.14s-.36,3.7-1.08,5.12c-.72,1.43-1.74,2.52-3.08,3.28-1.33.76-2.94,1.14-4.83,1.14h-6.71l1.38-1.81v10.16h-3.08ZM177,161.33l-1.38-1.92h6.61c1.97,0,3.46-.54,4.48-1.63,1.02-1.09,1.52-2.61,1.52-4.57s-.51-3.48-1.52-4.55-2.51-1.61-4.48-1.61h-6.61l1.38-1.96v16.25ZM188.32,171.1l-5.48-9.97h3.29l5.54,9.97h-3.35Z"/>
      <path class="cls-1" d="M193.03,171.1l9.75-27.47h3.05l9.78,27.47h-3.23l-8.71-25.28h1.23l-8.71,25.28h-3.17ZM197.18,164.23l.83-3.14h12.12l.89,3.14h-13.84Z"/>
      <path class="cls-1" d="M228.13,171.41c-1.64,0-3.15-.35-4.54-1.04-1.38-.69-2.58-1.67-3.6-2.94-1.02-1.27-1.81-2.75-2.38-4.45-.57-1.7-.86-3.57-.86-5.61s.29-3.91.86-5.61c.57-1.7,1.37-3.18,2.4-4.45,1.03-1.27,2.23-2.25,3.61-2.94,1.38-.69,2.9-1.04,4.54-1.04s3.19.36,4.6,1.08c1.4.72,2.6,1.79,3.58,3.2l-2,2.47c-.82-1.1-1.74-1.92-2.77-2.45-1.03-.54-2.12-.8-3.29-.8s-2.33.26-3.37.78c-1.04.52-1.93,1.26-2.69,2.2s-1.35,2.06-1.77,3.36c-.42,1.29-.63,2.7-.63,4.22s.21,2.92.63,4.22c.42,1.3,1.01,2.41,1.77,3.36s1.66,1.67,2.69,2.2c1.04.52,2.16.78,3.37.78s2.27-.27,3.29-.8,1.95-1.37,2.77-2.49l2,2.47c-.98,1.41-2.18,2.49-3.58,3.22-1.41.73-2.95,1.1-4.63,1.1Z"/>
      <path class="cls-1" d="M244.78,171.1v-24.06h-7.38v-3.41h17.81v3.41h-7.38v24.06h-3.05Z"/>
      <path class="cls-1" d="M258.56,171.1v-27.47h3.08v27.47h-3.08Z"/>
      <path class="cls-1" d="M268.1,171.1v-27.47h2.52l14.24,22.57h-1.32v-22.57h3.08v27.47h-2.52l-14.24-22.57h1.32v22.57h-3.08Z"/>
      <path class="cls-1" d="M302.8,171.41c-1.66,0-3.19-.35-4.58-1.04s-2.6-1.67-3.63-2.94c-1.03-1.27-1.83-2.75-2.4-4.45-.57-1.7-.86-3.57-.86-5.61s.29-3.91.86-5.61c.57-1.7,1.38-3.18,2.41-4.45s2.25-2.25,3.65-2.94,2.93-1.04,4.62-1.04,3.26.35,4.68,1.06,2.62,1.77,3.6,3.18l-1.91,2.43c-.88-1.1-1.84-1.9-2.88-2.41-1.04-.51-2.16-.77-3.37-.77s-2.37.26-3.43.78c-1.06.52-1.97,1.26-2.74,2.2-.77.94-1.36,2.06-1.78,3.36-.42,1.29-.63,2.7-.63,4.22s.21,2.89.63,4.18c.42,1.3,1.02,2.42,1.78,3.38.77.96,1.68,1.69,2.72,2.22,1.05.52,2.18.78,3.42.78,1.15,0,2.25-.23,3.31-.69,1.06-.46,2.04-1.22,2.94-2.3l1.75,2.98c-1.07,1.15-2.31,2.02-3.74,2.61-1.43.59-2.9.88-4.41.88ZM308,167.41v-10.2h2.95v10.72l-2.95-.51Z"/>
    </g>
  </g>
  <g>
    <polygon class="cls-2" points="344.18 146.79 344.18 51.99 391.58 99.39 344.18 146.79"/>
    <g>
      <polygon class="cls-2" points="410.85 80.12 406.7 84.27 490.97 66.84 490.97 60.91 410.85 80.12 410.85 80.12 410.85 80.12"/>
      <polygon class="cls-2" points="410.85 80.12 410.85 80.12 411.2 79.77 411.01 79.96 410.85 80.12"/>
      <polygon class="cls-2" points="406.4 84.57 406.18 84.78 406.18 84.78 402.08 88.89 402.08 88.89 401.64 89.33 402.08 88.89 490.97 74.11 490.97 68.16 406.18 84.79 406.4 84.57"/>
      <polygon class="cls-2" points="416.65 74.32 411.57 79.4 411.57 79.4 411.2 79.77 411.57 79.4 490.97 59.33 490.97 53.38 416.65 74.32 417.38 73.59 416.65 74.32 416.65 74.32"/>
      <polygon class="cls-2" points="394.75 102.41 394.61 102.28 394.62 102.28 394.75 102.41 394.75 102.41 441.4 146.79 488.63 101.63 394.75 102.41"/>
      <polygon class="cls-2" points="417.38 73.59 417.82 73.15 417.82 73.15 417.38 73.59"/>
      <rect class="cls-1" x="397.58" y="93.13" width=".52" height="0" transform="translate(50.62 308.5) rotate(-44.99)"/>
      <polygon class="cls-2" points="397.65 93.32 391.58 99.39 394.59 102.25 489.33 100.96 488.74 101.52 490.97 99.39 490.97 95.27 392.88 100.63 392.74 100.49 490.97 94.6 490.97 89.16 393.05 97.92 393.3 97.67 490.97 88.16 490.97 82.18 397.65 93.32 397.65 93.32 397.65 93.32"/>
      <polygon class="cls-2" points="406.69 84.28 406.65 84.31 406.4 84.57 406.7 84.27 406.69 84.28"/>
      <polygon class="cls-2" points="398.02 92.95 398.02 92.95 398.02 92.95 490.97 80.87 490.97 75.44 401.64 89.33 401.64 89.33 398.02 92.95"/>
      <polygon class="cls-2" points="424.87 66.1 424.07 66.9 417.82 73.15 417.83 73.15 417.82 73.15 490.97 51.6 490.97 45.84 424.03 66.94 424.87 66.1"/>
      <rect class="cls-1" x="451.81" y="36.68" width="4.96" height="0" transform="translate(107.13 331.98) rotate(-45)"/>
      <polygon class="cls-2" points="452.54 38.43 452.54 38.43 443.29 47.67 490.97 27.21 490.97 21.22 452.54 38.43 452.54 38.43"/>
      <polygon class="cls-2" points="466.97 24 466.97 24 456.04 34.92 490.97 18.58 490.97 11.93 466.97 24 466.97 24"/>
      <polygon class="cls-2" points="425.63 65.34 425.63 65.34 425.63 65.34 425.63 65.34"/>
      <polygon class="cls-2" points="471.56 19.41 490.97 9.2 490.97 0 471.56 19.41"/>
      <polygon class="cls-2" points="466.97 24 466.97 24 469.68 21.29 466.97 24"/>
      <polygon class="cls-2" points="431.84 59.13 431.84 59.13 425.63 65.34 490.97 43.75 490.97 37.72 431.84 59.13 431.84 59.13"/>
      <polygon class="cls-2" points="425.63 65.34 424.87 66.1 425.63 65.34 425.63 65.34"/>
      <polygon class="cls-2" points="433.96 57.01 432.47 58.5 431.84 59.13 431.84 59.13 433.96 57.01 433.96 57.01"/>
      <polygon class="cls-2" points="442.21 48.76 442.04 48.92 440.73 50.24 440.73 50.24 433.96 57.01 490.97 35.42 490.97 29.53 440.73 50.24 442.21 48.76"/>
    </g>
    <rect class="cls-1" x="344.18" y="163.27" width="146.79" height="10.74"/>
  </g>
</svg>