<?xml version="1.0" encoding="UTF-8"?>
<svg id="Layer_1" data-name="Layer 1" xmlns="http://www.w3.org/2000/svg" viewBox="0 0 187.78 222.6">
  <defs>
    <style>
      .cls-1 {
        fill-rule: evenodd;
      }

      .cls-1, .cls-2 {
        fill: #082843;
      }

      .cls-3 {
        fill: #826e39;
      }
    </style>
  </defs>
  <polygon class="cls-1" points="0 187.78 0 66.51 60.64 127.14 0 187.78"/>
  <g>
    <polygon class="cls-1" points="85.3 102.49 79.98 107.81 187.78 85.51 187.78 77.92 85.3 102.49 85.3 102.49 85.3 102.49"/>
    <polygon class="cls-1" points="85.3 102.49 85.3 102.49 85.74 102.04 85.49 102.29 85.3 102.49"/>
    <polygon class="cls-1" points="79.6 108.19 79.32 108.46 79.32 108.46 74.07 113.71 74.07 113.71 73.51 114.28 74.08 113.71 187.78 94.8 187.78 87.2 79.32 108.46 79.6 108.19"/>
    <polygon class="cls-1" points="92.71 95.07 86.21 101.57 86.21 101.57 85.74 102.04 86.21 101.57 187.78 75.89 187.78 68.29 92.71 95.07 93.64 94.14 92.71 95.07 92.71 95.07"/>
    <polygon class="cls-1" points="64.7 131.01 64.52 130.83 64.53 130.84 64.7 131.01 64.7 131.01 124.37 187.78 184.79 130.01 64.7 131.01"/>
    <polygon class="cls-1" points="93.64 94.14 94.21 93.57 94.21 93.57 93.64 94.14"/>
    <rect class="cls-2" x="68.31" y="119.14" width=".67" height="0" transform="translate(-64.13 83.4) rotate(-44.99)"/>
    <polygon class="cls-1" points="68.41 119.37 60.64 127.14 64.49 130.81 185.68 129.15 184.93 129.87 187.78 127.14 187.78 121.87 62.31 128.73 62.13 128.55 187.78 121.02 187.78 114.05 62.53 125.26 62.84 124.94 187.78 112.78 187.78 105.13 68.41 119.37 68.41 119.37 68.41 119.37"/>
    <polygon class="cls-1" points="79.98 107.81 79.93 107.86 79.6 108.19 79.98 107.81 79.98 107.81"/>
    <polygon class="cls-1" points="68.88 118.9 68.88 118.9 68.88 118.9 187.78 103.45 187.78 96.5 73.51 114.28 73.5 114.28 68.88 118.9"/>
    <polygon class="cls-1" points="103.22 84.56 102.2 85.59 94.21 93.57 94.22 93.57 94.21 93.57 187.78 66.01 187.78 58.64 102.15 85.64 103.22 84.56"/>
    <rect class="cls-2" x="137.69" y="46.92" width="6.34" height="0" transform="translate(8.08 113.35) rotate(-45)"/>
    <polygon class="cls-1" points="138.62 49.16 138.62 49.16 126.8 60.99 187.78 34.81 187.78 27.14 138.62 49.16 138.62 49.16"/>
    <polygon class="cls-1" points="157.09 30.7 157.09 30.7 143.11 44.68 187.78 23.77 187.78 15.26 157.09 30.7 157.09 30.7"/>
    <polygon class="cls-1" points="104.19 83.59 104.19 83.59 104.19 83.59 104.19 83.59"/>
    <polygon class="cls-1" points="162.96 24.83 187.78 11.77 187.78 0 162.96 24.83"/>
    <polygon class="cls-1" points="157.09 30.7 157.09 30.7 160.54 27.24 157.09 30.7"/>
    <polygon class="cls-1" points="112.15 75.64 112.15 75.64 104.2 83.59 187.78 55.97 187.78 48.25 112.15 75.64 112.15 75.64"/>
    <polygon class="cls-1" points="104.19 83.59 103.22 84.56 104.2 83.59 104.19 83.59"/>
    <polygon class="cls-1" points="114.86 72.93 112.95 74.84 112.15 75.64 112.15 75.64 114.86 72.93 114.86 72.93"/>
    <polygon class="cls-1" points="125.41 62.37 125.2 62.59 123.52 64.26 123.52 64.26 114.86 72.92 187.78 45.31 187.78 37.78 123.52 64.26 125.41 62.37"/>
  </g>
  <rect class="cls-3" y="208.86" width="187.78" height="13.74"/>
</svg>